# This file uses centimeters as units for non-parametric coordinates.

mtllib Ingredientes.mtl
g default
v -0.589378 1.962330 1.700188
v -0.205203 1.962330 1.362892
v -0.589378 2.096420 1.700188
v -0.205203 2.096420 1.362892
v -1.249148 2.096420 0.948721
v -0.864973 2.096420 0.611424
v -1.249148 1.962330 0.948721
v -0.864973 1.962330 0.611424
vt 0.563712 0.154839
vt 0.813022 0.364717
vt 0.813022 0.364717
vt 0.563712 0.154839
vt 0.384865 0.832305
vt 0.135556 0.622427
vt 0.384865 0.832305
vt 0.135556 0.622427
vn 0.659770 0.000000 0.751467
vn 0.659770 0.000000 0.751467
vn 0.659770 0.000000 0.751467
vn 0.659770 0.000000 0.751467
vn 0.000000 1.000000 0.000000
vn 0.000000 1.000000 0.000000
vn 0.000000 1.000000 0.000000
vn 0.000000 1.000000 0.000000
vn -0.659770 0.000000 -0.751467
vn -0.659770 0.000000 -0.751467
vn -0.659770 0.000000 -0.751467
vn -0.659770 0.000000 -0.751467
vn 0.000000 -1.000000 0.000000
vn 0.000000 -1.000000 0.000000
vn 0.000000 -1.000000 0.000000
vn 0.000000 -1.000000 0.000000
vn 0.751467 0.000000 -0.659770
vn 0.751467 0.000000 -0.659770
vn 0.751467 0.000000 -0.659770
vn 0.751467 0.000000 -0.659770
vn -0.751467 0.000000 0.659770
vn -0.751467 0.000000 0.659770
vn -0.751467 0.000000 0.659770
vn -0.751467 0.000000 0.659770
s off
g pCube1
usemtl lambert4SG
f 1/1/1 2/2/2 4/3/3 3/4/4
f 3/4/5 4/3/6 6/5/7 5/6/8
f 5/6/9 6/5/10 8/7/11 7/8/12
f 7/8/13 8/7/14 2/2/15 1/1/16
f 2/2/17 8/7/18 6/5/19 4/3/20
f 7/8/21 1/1/22 3/4/23 5/6/24
g default
v 0.706055 1.962330 1.717324
v 1.158680 1.962330 1.479647
v 0.706055 2.096420 1.717324
v 1.158680 2.096420 1.479647
v 0.241146 2.096420 0.831966
v 0.693770 2.096420 0.594288
v 0.241146 1.962330 0.831966
v 0.693770 1.962330 0.594288
vt 0.563712 0.154839
vt 0.813022 0.364717
vt 0.813022 0.364717
vt 0.563712 0.154839
vt 0.384865 0.832305
vt 0.135556 0.622427
vt 0.384865 0.832305
vt 0.135556 0.622427
vn 0.464909 0.000000 0.885358
vn 0.464909 0.000000 0.885358
vn 0.464909 0.000000 0.885358
vn 0.464909 0.000000 0.885358
vn 0.000000 1.000000 0.000000
vn 0.000000 1.000000 0.000000
vn 0.000000 1.000000 0.000000
vn 0.000000 1.000000 0.000000
vn -0.464910 0.000000 -0.885358
vn -0.464910 0.000000 -0.885358
vn -0.464910 0.000000 -0.885358
vn -0.464910 0.000000 -0.885358
vn 0.000000 -1.000000 0.000000
vn 0.000000 -1.000000 0.000000
vn 0.000000 -1.000000 0.000000
vn 0.000000 -1.000000 0.000000
vn 0.885358 0.000000 -0.464909
vn 0.885358 0.000000 -0.464909
vn 0.885358 0.000000 -0.464909
vn 0.885358 0.000000 -0.464909
vn -0.885358 0.000000 0.464909
vn -0.885358 0.000000 0.464909
vn -0.885358 0.000000 0.464909
vn -0.885358 0.000000 0.464909
s off
g pasted__pCube1 group2
usemtl pasted__lambert4SG
f 9/9/25 10/10/26 12/11/27 11/12/28
f 11/12/29 12/11/30 14/13/31 13/14/32
f 13/14/33 14/13/34 16/15/35 15/16/36
f 15/16/37 16/15/38 10/10/39 9/9/40
f 10/10/41 16/15/42 14/13/43 12/11/44
f 15/16/45 9/9/46 11/12/47 13/14/48
g default
v 0.028542 1.962330 -0.731194
v 0.535604 1.962330 -0.666012
v 0.028542 2.096420 -0.731194
v 0.535604 2.096420 -0.666012
v 0.156041 2.096420 -1.723032
v 0.663102 2.096420 -1.657851
v 0.156041 1.962330 -1.723032
v 0.663102 1.962330 -1.657851
vt 0.563712 0.154839
vt 0.813022 0.364717
vt 0.813022 0.364717
vt 0.563712 0.154839
vt 0.384865 0.832305
vt 0.135556 0.622427
vt 0.384865 0.832305
vt 0.135556 0.622427
vn -0.127498 0.000000 0.991839
vn -0.127498 0.000000 0.991839
vn -0.127498 0.000000 0.991839
vn -0.127498 0.000000 0.991839
vn 0.000000 1.000000 0.000000
vn 0.000000 1.000000 0.000000
vn 0.000000 1.000000 0.000000
vn 0.000000 1.000000 0.000000
vn 0.127498 0.000000 -0.991839
vn 0.127498 0.000000 -0.991839
vn 0.127498 0.000000 -0.991839
vn 0.127498 0.000000 -0.991839
vn 0.000000 -1.000000 0.000000
vn 0.000000 -1.000000 0.000000
vn 0.000000 -1.000000 0.000000
vn 0.000000 -1.000000 0.000000
vn 0.991839 0.000000 0.127498
vn 0.991839 0.000000 0.127498
vn 0.991839 0.000000 0.127498
vn 0.991839 0.000000 0.127498
vn -0.991839 0.000000 -0.127498
vn -0.991839 0.000000 -0.127498
vn -0.991839 0.000000 -0.127498
vn -0.991839 0.000000 -0.127498
s off
g pasted__pasted__pCube1 pasted__group2 group3
usemtl pasted__pasted__lambert4SG
f 17/17/49 18/18/50 20/19/51 19/20/52
f 19/20/53 20/19/54 22/21/55 21/22/56
f 21/22/57 22/21/58 24/23/59 23/24/60
f 23/24/61 24/23/62 18/18/63 17/17/64
f 18/18/65 24/23/66 22/21/67 20/19/68
f 23/24/69 17/17/70 19/20/71 21/22/72
