# This file uses centimeters as units for non-parametric coordinates.

mtllib PuertaEntrada.mtl
g default
v 9.611620 -0.037863 5.949301
v 9.703843 -0.037863 5.949301
v 9.611620 4.546889 5.949301
v 9.703843 4.546889 5.949301
v 9.611620 4.546889 3.781948
v 9.703843 4.546889 3.781948
v 9.611620 -0.037863 3.781948
v 9.703843 -0.037863 3.781948
vt 0.012808 -1.968126
vt 1.000029 -1.968126
vt 0.012808 -0.981185
vt 1.000029 -0.981185
vt 0.012808 0.005756
vt 1.000029 0.005756
vt 0.012808 0.992697
vt 1.000029 0.992697
vt 0.012808 1.979638
vt 1.000029 1.979638
vt 1.987250 -1.968126
vt 1.987250 -0.981185
vt -0.974413 -1.968126
vt -0.974413 -0.981185
vn 0.000000 0.000000 1.000000
vn 0.000000 0.000000 1.000000
vn 0.000000 0.000000 1.000000
vn 0.000000 0.000000 1.000000
vn 0.000000 1.000000 0.000000
vn 0.000000 1.000000 0.000000
vn 0.000000 1.000000 0.000000
vn 0.000000 1.000000 0.000000
vn 0.000000 0.000000 -1.000000
vn 0.000000 0.000000 -1.000000
vn 0.000000 0.000000 -1.000000
vn 0.000000 0.000000 -1.000000
vn 0.000000 -1.000000 0.000000
vn 0.000000 -1.000000 0.000000
vn 0.000000 -1.000000 0.000000
vn 0.000000 -1.000000 0.000000
vn 1.000000 0.000000 0.000000
vn 1.000000 0.000000 0.000000
vn 1.000000 0.000000 0.000000
vn 1.000000 0.000000 0.000000
vn -1.000000 0.000000 0.000000
vn -1.000000 0.000000 0.000000
vn -1.000000 0.000000 0.000000
vn -1.000000 0.000000 0.000000
s off
g pasted__pCube7 group112
usemtl pasted__lambert13SG
f 1/1/1 2/2/2 4/4/3 3/3/4
f 3/3/5 4/4/6 6/6/7 5/5/8
f 5/5/9 6/6/10 8/8/11 7/7/12
f 7/7/13 8/8/14 2/10/15 1/9/16
f 2/2/17 8/11/18 6/12/19 4/4/20
f 7/13/21 1/1/22 3/3/23 5/14/24
